<mxfile host="app.diagrams.net" agent="Mozilla/5.0 (Windows NT 10.0; Win64; x64) AppleWebKit/537.36 (KHTML, like Gecko) Chrome/136.0.0.0 Safari/537.36 Edg/136.0.0.0" version="25.0.3">
  <diagram name="E-commerce Real-Time Analytics Pipeline" id="ptG_Nx72SQHArzZuSU3P">
    <mxGraphModel dx="996" dy="567" grid="1" gridSize="10" guides="1" tooltips="1" connect="1" arrows="1" fold="1" page="1" pageScale="1" pageWidth="850" pageHeight="1100" math="0" shadow="0">
      <root>
        <mxCell id="0" />
        <mxCell id="1" parent="0" />
        <mxCell id="vNuxd2ZCPyv9BmSQEKTI-1" value="E-commerce Application (Event Source)" style="rounded=1;whiteSpace=wrap;html=1;fillColor=#dae8fc;strokeColor=#6c8ebf;" vertex="1" parent="1">
          <mxGeometry x="40" y="120" width="180" height="60" as="geometry" />
        </mxCell>
        <mxCell id="vNuxd2ZCPyv9BmSQEKTI-2" value="Kafka (Event Streaming)" style="rounded=1;whiteSpace=wrap;html=1;fillColor=#fff2cc;strokeColor=#d6b656;" vertex="1" parent="1">
          <mxGeometry x="260" y="120" width="160" height="60" as="geometry" />
        </mxCell>
        <mxCell id="vNuxd2ZCPyv9BmSQEKTI-3" value="Spark Streaming (ETL)" style="rounded=1;whiteSpace=wrap;html=1;fillColor=#d5e8d4;strokeColor=#82b366;" vertex="1" parent="1">
          <mxGeometry x="460" y="120" width="180" height="60" as="geometry" />
        </mxCell>
        <mxCell id="vNuxd2ZCPyv9BmSQEKTI-4" value="S3 Data Lake (Raw &amp; Processed Data)" style="rounded=1;whiteSpace=wrap;html=1;fillColor=#e1d5e7;strokeColor=#9673a6;" vertex="1" parent="1">
          <mxGeometry x="680" y="60" width="200" height="60" as="geometry" />
        </mxCell>
        <mxCell id="vNuxd2ZCPyv9BmSQEKTI-5" value="Redshift/Snowflake (Data Warehouse)" style="rounded=1;whiteSpace=wrap;html=1;fillColor=#f8cecc;strokeColor=#b85450;" vertex="1" parent="1">
          <mxGeometry x="680" y="160" width="200" height="60" as="geometry" />
        </mxCell>
        <mxCell id="vNuxd2ZCPyv9BmSQEKTI-6" value="Dashboard (Tableau/QuickSight/Streamlit)" style="rounded=1;whiteSpace=wrap;html=1;fillColor=#f5f5f5;strokeColor=#666666;" vertex="1" parent="1">
          <mxGeometry x="920" y="60" width="200" height="60" as="geometry" />
        </mxCell>
        <mxCell id="vNuxd2ZCPyv9BmSQEKTI-7" value="Data Science Tools (Jupyter Notebook)" style="rounded=1;whiteSpace=wrap;html=1;fillColor=#f5f5f5;strokeColor=#666666;" vertex="1" parent="1">
          <mxGeometry x="920" y="160" width="200" height="60" as="geometry" />
        </mxCell>
        <mxCell id="vNuxd2ZCPyv9BmSQEKTI-8" style="edgeStyle=orthogonalEdgeStyle;rounded=0;orthogonalLoop=1;jettySize=auto;html=1;endArrow=block;endFill=1;strokeColor=#6c8ebf;" edge="1" parent="1" source="vNuxd2ZCPyv9BmSQEKTI-1" target="vNuxd2ZCPyv9BmSQEKTI-2">
          <mxGeometry relative="1" as="geometry" />
        </mxCell>
        <mxCell id="vNuxd2ZCPyv9BmSQEKTI-9" style="edgeStyle=orthogonalEdgeStyle;rounded=0;orthogonalLoop=1;jettySize=auto;html=1;endArrow=block;endFill=1;strokeColor=#d6b656;" edge="1" parent="1" source="vNuxd2ZCPyv9BmSQEKTI-2" target="vNuxd2ZCPyv9BmSQEKTI-3">
          <mxGeometry relative="1" as="geometry" />
        </mxCell>
        <mxCell id="vNuxd2ZCPyv9BmSQEKTI-10" style="edgeStyle=orthogonalEdgeStyle;rounded=0;orthogonalLoop=1;jettySize=auto;html=1;endArrow=block;endFill=1;strokeColor=#82b366;" edge="1" parent="1" source="vNuxd2ZCPyv9BmSQEKTI-3" target="vNuxd2ZCPyv9BmSQEKTI-4">
          <mxGeometry relative="1" as="geometry" />
        </mxCell>
        <mxCell id="vNuxd2ZCPyv9BmSQEKTI-11" style="edgeStyle=orthogonalEdgeStyle;rounded=0;orthogonalLoop=1;jettySize=auto;html=1;endArrow=block;endFill=1;strokeColor=#9673a6;" edge="1" parent="1" source="vNuxd2ZCPyv9BmSQEKTI-4" target="vNuxd2ZCPyv9BmSQEKTI-5">
          <mxGeometry relative="1" as="geometry" />
        </mxCell>
        <mxCell id="vNuxd2ZCPyv9BmSQEKTI-12" style="edgeStyle=orthogonalEdgeStyle;rounded=0;orthogonalLoop=1;jettySize=auto;html=1;endArrow=block;endFill=1;strokeColor=#b85450;" edge="1" parent="1" source="vNuxd2ZCPyv9BmSQEKTI-5" target="vNuxd2ZCPyv9BmSQEKTI-6">
          <mxGeometry relative="1" as="geometry" />
        </mxCell>
        <mxCell id="vNuxd2ZCPyv9BmSQEKTI-13" style="edgeStyle=orthogonalEdgeStyle;rounded=0;orthogonalLoop=1;jettySize=auto;html=1;endArrow=block;endFill=1;strokeColor=#b85450;" edge="1" parent="1" source="vNuxd2ZCPyv9BmSQEKTI-5" target="vNuxd2ZCPyv9BmSQEKTI-7">
          <mxGeometry relative="1" as="geometry" />
        </mxCell>
      </root>
    </mxGraphModel>
  </diagram>
</mxfile>
